<svg xmlns="http://www.w3.org/2000/svg" xmlns:xlink="http://www.w3.org/1999/xlink" version="1.1" style="" xml:space="preserve" width="384" height="384"><rect id="backgroundrect" width="100%" height="100%" x="0" y="0" fill="none" stroke="none"/>

















<g class="currentLayer" style=""><title>Layer 1</title><g id="svg_1" class="" fill="#e71d4a" fill-opacity="1" opacity="1">
	<g id="svg_2" fill="#e71d4a" fill-opacity="1" opacity="1">
		<path d="M368,176c-8.832,0-16,7.168-16,16c0,88.224-71.776,160-160,160S32,280.224,32,192S103.776,32,192,32    c42.952,0,83.272,16.784,113.544,47.264c6.216,6.272,16.352,6.312,22.624,0.08c6.272-6.224,6.304-16.352,0.08-22.624    C291.928,20.144,243.536,0,192,0C86.128,0,0,86.128,0,192s86.128,192,192,192s192-86.128,192-192C384,183.168,376.832,176,368,176    z" id="svg_3" fill="#e71d4a" fill-opacity="1" opacity="1"/>
	</g>
</g><g id="svg_4" class="" fill-opacity="1" fill="#e71d4a">
	<g id="svg_5" fill="#e71d4a">
		<path d="M256,176h-48v-48c0-8.832-7.168-16-16-16c-8.832,0-16,7.168-16,16v48h-48c-8.832,0-16,7.168-16,16c0,8.832,7.168,16,16,16    h48v48c0,8.832,7.168,16,16,16c8.832,0,16-7.168,16-16v-48h48c8.832,0,16-7.168,16-16C272,183.168,264.832,176,256,176z" id="svg_6" fill="#e71d4a"/>
	</g>
</g><g id="svg_7">
</g><g id="svg_8">
</g><g id="svg_9">
</g><g id="svg_10">
</g><g id="svg_11">
</g><g id="svg_12">
</g><g id="svg_13">
</g><g id="svg_14">
</g><g id="svg_15">
</g><g id="svg_16">
</g><g id="svg_17">
</g><g id="svg_18">
</g><g id="svg_19">
</g><g id="svg_20">
</g><g id="svg_21">
</g></g></svg>