<svg xmlns="http://www.w3.org/2000/svg" xmlns:xlink="http://www.w3.org/1999/xlink" version="1.1" width="510" height="510" style="enable-background:new 0 0 510 510;" xml:space="preserve"><rect id="backgroundrect" width="100%" height="100%" x="0" y="0" fill="none" stroke="none"/>
















<g class="currentLayer" style=""><title>Layer 1</title><g id="svg_1" class="selected" fill-opacity="1" fill="#e71d4a">
	<g id="check-circle-outline" fill="#e71d4a">
		<path d="M150.45,206.55l-35.7,35.7L229.5,357l255-255l-35.7-35.7L229.5,285.6L150.45,206.55z M459,255c0,112.2-91.8,204-204,204    S51,367.2,51,255S142.8,51,255,51c20.4,0,38.25,2.55,56.1,7.65l40.801-40.8C321.3,7.65,288.15,0,255,0C114.75,0,0,114.75,0,255    s114.75,255,255,255s255-114.75,255-255H459z" id="svg_2" fill="#e71d4a"/>
	</g>
</g><g id="svg_3">
</g><g id="svg_4">
</g><g id="svg_5">
</g><g id="svg_6">
</g><g id="svg_7">
</g><g id="svg_8">
</g><g id="svg_9">
</g><g id="svg_10">
</g><g id="svg_11">
</g><g id="svg_12">
</g><g id="svg_13">
</g><g id="svg_14">
</g><g id="svg_15">
</g><g id="svg_16">
</g><g id="svg_17">
</g></g></svg>